<svg width="150" height="18" viewBox="0 0 150 18" fill="none" xmlns="http://www.w3.org/2000/svg">
<path d="M16.52 17H12.9038L11.4663 13.2603H4.88525L3.52637 17H0L6.4126 0.536133H9.92773L16.52 17ZM10.3994 10.4863L8.13086 4.37695L5.90723 10.4863H10.3994ZM17.4521 11.6431L20.6865 11.3286C20.8812 12.4142 21.2743 13.2116 21.8657 13.7207C22.4647 14.2298 23.2695 14.4844 24.2803 14.4844C25.3509 14.4844 26.1558 14.2598 26.6948 13.8105C27.2414 13.3538 27.5146 12.8223 27.5146 12.2158C27.5146 11.8265 27.3986 11.4971 27.1665 11.2275C26.9419 10.9505 26.5451 10.7109 25.9761 10.5088C25.5868 10.374 24.6995 10.1344 23.3145 9.79004C21.5326 9.34831 20.2822 8.8055 19.5635 8.16162C18.5527 7.2557 18.0474 6.15137 18.0474 4.84863C18.0474 4.01009 18.2832 3.2277 18.7549 2.50146C19.234 1.76774 19.9191 1.20996 20.8101 0.828125C21.7085 0.446289 22.7904 0.255371 24.0557 0.255371C26.1221 0.255371 27.6756 0.708333 28.7163 1.61426C29.7645 2.52018 30.3148 3.72933 30.3672 5.2417L27.043 5.3877C26.9007 4.54167 26.5938 3.93522 26.1221 3.56836C25.6579 3.19401 24.9578 3.00684 24.022 3.00684C23.0562 3.00684 22.3 3.20524 21.7534 3.60205C21.4015 3.85661 21.2256 4.19727 21.2256 4.62402C21.2256 5.01335 21.3903 5.34652 21.7197 5.62354C22.139 5.97542 23.1572 6.34229 24.7744 6.72412C26.3916 7.10596 27.5858 7.50277 28.3569 7.91455C29.1356 8.31885 29.742 8.87663 30.1763 9.58789C30.618 10.2917 30.8389 11.1639 30.8389 12.2046C30.8389 13.1479 30.5768 14.0314 30.0527 14.855C29.5286 15.6785 28.7874 16.2925 27.8291 16.6968C26.8708 17.0936 25.6766 17.292 24.2466 17.292C22.1652 17.292 20.5667 16.8128 19.4512 15.8545C18.3356 14.8887 17.6693 13.4849 17.4521 11.6431ZM37.3413 17V3.32129H32.4561V0.536133H45.5396V3.32129H40.6655V17H37.3413ZM54.1084 17V0.536133H61.105C62.8644 0.536133 64.141 0.685872 64.9346 0.985352C65.7357 1.27734 66.3758 1.80143 66.855 2.55762C67.3341 3.3138 67.5737 4.17855 67.5737 5.15186C67.5737 6.38721 67.2106 7.40918 66.4844 8.21777C65.7581 9.01888 64.6725 9.52425 63.2275 9.73389C63.9463 10.1532 64.5378 10.6136 65.002 11.1152C65.4736 11.6169 66.1063 12.5078 66.8999 13.7881L68.9102 17H64.9346L62.5312 13.4175C61.6777 12.1372 61.0938 11.3324 60.7793 11.0029C60.4648 10.666 60.1317 10.4377 59.7798 10.3179C59.4279 10.1906 58.8701 10.127 58.1064 10.127H57.4326V17H54.1084ZM57.4326 7.49902H59.8921C61.4868 7.49902 62.4826 7.43164 62.8794 7.29688C63.2762 7.16211 63.5869 6.93001 63.8115 6.60059C64.0361 6.27116 64.1484 5.85938 64.1484 5.36523C64.1484 4.8112 63.9987 4.36572 63.6992 4.02881C63.4072 3.68441 62.9917 3.46729 62.4526 3.37744C62.1831 3.34001 61.3745 3.32129 60.0269 3.32129H57.4326V7.49902ZM70.7183 17V0.536133H82.9258V3.32129H74.0425V6.97119H82.3081V9.74512H74.0425V14.2261H83.2402V17H70.7183ZM100.906 17H97.2896L95.8521 13.2603H89.271L87.9121 17H84.3857L90.7983 0.536133H94.3135L100.906 17ZM94.7852 10.4863L92.5166 4.37695L90.293 10.4863H94.7852ZM102.669 0.536133H108.745C110.115 0.536133 111.159 0.640951 111.878 0.850586C112.844 1.13509 113.671 1.64046 114.36 2.3667C115.049 3.09294 115.573 3.98389 115.932 5.03955C116.292 6.08773 116.471 7.38298 116.471 8.92529C116.471 10.2804 116.303 11.4484 115.966 12.4292C115.554 13.6271 114.966 14.5967 114.203 15.3379C113.626 15.8994 112.847 16.3374 111.867 16.6519C111.133 16.884 110.152 17 108.924 17H102.669V0.536133ZM105.993 3.32129V14.2261H108.475C109.403 14.2261 110.074 14.1737 110.485 14.0688C111.024 13.9341 111.47 13.7057 111.822 13.3838C112.181 13.0618 112.473 12.534 112.698 11.8003C112.922 11.0591 113.035 10.0521 113.035 8.7793C113.035 7.50651 112.922 6.52946 112.698 5.84814C112.473 5.16683 112.159 4.63525 111.754 4.25342C111.35 3.87158 110.837 3.61328 110.216 3.47852C109.752 3.3737 108.842 3.32129 107.487 3.32129H105.993ZM119.301 17V0.536133H131.509V3.32129H122.625V6.97119H130.891V9.74512H122.625V14.2261H131.823V17H119.301ZM134.653 17V0.536133H141.65C143.409 0.536133 144.686 0.685872 145.479 0.985352C146.281 1.27734 146.921 1.80143 147.4 2.55762C147.879 3.3138 148.119 4.17855 148.119 5.15186C148.119 6.38721 147.756 7.40918 147.029 8.21777C146.303 9.01888 145.217 9.52425 143.772 9.73389C144.491 10.1532 145.083 10.6136 145.547 11.1152C146.019 11.6169 146.651 12.5078 147.445 13.7881L149.455 17H145.479L143.076 13.4175C142.223 12.1372 141.639 11.3324 141.324 11.0029C141.01 10.666 140.677 10.4377 140.325 10.3179C139.973 10.1906 139.415 10.127 138.651 10.127H137.978V17H134.653ZM137.978 7.49902H140.437C142.032 7.49902 143.028 7.43164 143.424 7.29688C143.821 7.16211 144.132 6.93001 144.356 6.60059C144.581 6.27116 144.693 5.85938 144.693 5.36523C144.693 4.8112 144.544 4.36572 144.244 4.02881C143.952 3.68441 143.537 3.46729 142.998 3.37744C142.728 3.34001 141.919 3.32129 140.572 3.32129H137.978V7.49902Z" fill="#0E7680"/>
</svg>
