<svg width="22" height="19" viewBox="0 0 22 19" fill="none" xmlns="http://www.w3.org/2000/svg">
<path d="M11.4844 13.6667H1.77812L7.98958 7.45521L10.4167 9.32292L12.8437 7.45417L14.5135 9.12396C14.8471 8.94726 15.1975 8.8042 15.5594 8.69687L13.676 6.81354L19.7917 2.10417V9.10417C20.1619 9.28825 20.5111 9.51177 20.8333 9.77083V1.6875C20.8322 1.27344 20.6673 0.876648 20.3745 0.58386C20.0817 0.291073 19.6849 0.1261 19.2708 0.125H1.5625C1.14844 0.1261 0.751648 0.291073 0.45886 0.58386C0.166073 0.876648 0.00109977 1.27344 0 1.6875V13.1458C0 13.5602 0.16462 13.9577 0.457646 14.2507C0.750671 14.5437 1.1481 14.7083 1.5625 14.7083H11.4844C11.4687 14.5365 11.4583 14.3635 11.4583 14.1875C11.4583 14.0115 11.4687 13.8385 11.4844 13.6667ZM1.04167 12.9302V2.10521L7.15729 6.81354L1.04167 12.9302ZM19.2708 1.16667C19.2802 1.16667 19.2875 1.17188 19.2969 1.17188L10.4167 8.01042L1.53646 1.17188C1.54583 1.17188 1.55312 1.16667 1.5625 1.16667H19.2708ZM17.1875 9.5C15.9447 9.50138 14.7532 9.99568 13.8745 10.8745C12.9957 11.7532 12.5014 12.9447 12.5 14.1875C12.5074 14.362 12.5248 14.5359 12.5521 14.7083C12.6775 15.8512 13.2195 16.9078 14.0746 17.6763C14.9296 18.4449 16.0378 18.8716 17.1875 18.875H17.7083V17.8333H17.1875C16.313 17.8309 15.4687 17.5138 14.8088 16.94C14.1489 16.3661 13.7176 15.574 13.5938 14.7083C13.5638 14.5362 13.5464 14.3621 13.5417 14.1875C13.5412 13.4697 13.7527 12.7677 14.1498 12.1697C14.5468 11.5717 15.1116 11.1042 15.7734 10.8261C16.4351 10.5479 17.1642 10.4714 17.8693 10.6061C18.5743 10.7408 19.2239 11.0808 19.7365 11.5833H18.75V12.1177C18.3018 11.7732 17.7528 11.5854 17.1875 11.5833C16.7606 11.5821 16.34 11.6859 15.9627 11.8854C15.5853 12.085 15.2628 12.3742 15.0236 12.7277C14.7843 13.0812 14.6356 13.4881 14.5905 13.9125C14.5454 14.337 14.6054 14.7661 14.7651 15.1619C14.9248 15.5578 15.1794 15.9083 15.5065 16.1826C15.8335 16.457 16.2229 16.6467 16.6405 16.7351C17.0581 16.8236 17.4911 16.808 17.9012 16.6898C18.3114 16.5716 18.6862 16.3544 18.9927 16.0573C19.1721 16.3448 19.4403 16.5661 19.7567 16.6875C20.0731 16.809 20.4205 16.8241 20.7462 16.7305C21.072 16.6369 21.3584 16.4397 21.562 16.1688C21.7657 15.8979 21.8756 15.5681 21.875 15.2292V14.1875C21.8601 12.9489 21.3615 11.7652 20.4856 10.8894C19.6097 10.0135 18.4261 9.51487 17.1875 9.5ZM17.1875 15.75C16.8654 15.749 16.5515 15.6483 16.2889 15.4618C16.0264 15.2753 15.8279 15.0121 15.7208 14.7083C15.6591 14.5415 15.6267 14.3653 15.625 14.1875C15.625 13.7731 15.7896 13.3757 16.0826 13.0826C16.3757 12.7896 16.7731 12.625 17.1875 12.625C17.6019 12.625 17.9993 12.7896 18.2924 13.0826C18.5854 13.3757 18.75 13.7731 18.75 14.1875C18.7483 14.3653 18.7159 14.5415 18.6542 14.7083C18.5471 15.0121 18.3486 15.2753 18.0861 15.4618C17.8235 15.6483 17.5096 15.749 17.1875 15.75ZM20.8333 15.2292C20.8333 15.3673 20.7785 15.4998 20.6808 15.5975C20.5831 15.6951 20.4506 15.75 20.3125 15.75C20.1744 15.75 20.0419 15.6951 19.9442 15.5975C19.8465 15.4998 19.7917 15.3673 19.7917 15.2292V11.6385C20.4461 12.3276 20.8179 13.2373 20.8333 14.1875V15.2292Z" fill="#707070"/>
</svg>
