<svg width="26" height="25" viewBox="0 0 26 25" fill="none" xmlns="http://www.w3.org/2000/svg">
<g clip-path="url(#clip0_3_37)">
<g clip-path="url(#clip1_3_37)">
<path d="M24.6942 2.88461H15.8846V5.75384H18.799V7.70673H15.8846V9.61538H18.7692V11.5385H15.8846V13.4615H18.7692V15.3846H15.8846V17.3077H18.7692V19.2308H15.8846V22.1154H24.6942C25.1375 22.1154 25.5 21.7394 25.5 21.2788V3.72115C25.5 3.26057 25.1375 2.88461 24.6942 2.88461ZM23.5769 19.2308H19.7308V17.3077H23.5769V19.2308ZM23.5769 15.3846H19.7308V13.4615H23.5769V15.3846ZM23.5769 11.5385H19.7308V9.61538H23.5769V11.5385ZM23.5769 7.69231H19.7308V5.76923H23.5769V7.69231Z" fill="white"/>
<path d="M0.5 2.77788V22.2231L14.9231 25V0L0.5 2.77788ZM9.62308 17.3846L7.94519 14.2125C7.88173 14.0942 7.81635 13.8769 7.74808 13.5606H7.72212C7.69038 13.7096 7.61538 13.9365 7.49712 14.2404L5.81346 17.3846H3.19904L6.30288 12.5154L3.46346 7.64519H6.13269L7.525 10.5654C7.63365 10.7962 7.73077 11.0702 7.81731 11.3865H7.84423C7.89904 11.1962 8.00096 10.9135 8.15 10.5375L9.69808 7.64423H12.1423L9.22212 12.4731L12.224 17.3837L9.62308 17.3846Z" fill="white"/>
</g>
</g>
<defs>
<clipPath id="clip0_3_37">
<rect width="25" height="25" fill="white" transform="translate(0.5)"/>
</clipPath>
<clipPath id="clip1_3_37">
<rect width="25" height="25" fill="white" transform="translate(0.5)"/>
</clipPath>
</defs>
</svg>
