<svg width="19" height="23" viewBox="0 0 19 23" fill="none" xmlns="http://www.w3.org/2000/svg">
<path fill-rule="evenodd" clip-rule="evenodd" d="M9.88942 0.5C12.1384 0.5 13.9615 2.31443 13.9615 4.55263L13.9615 6.2893L15.125 6.28947C17.0527 6.28947 18.6154 7.8447 18.6154 9.76316V19.0263C18.6154 20.9448 17.0527 22.5 15.125 22.5H3.49039C1.5627 22.5 0 20.9448 0 19.0263V9.76316C0 7.8447 1.5627 6.28947 3.49039 6.28947L4.65382 6.2893L4.65385 4.55263C4.65385 2.31443 6.477 0.5 8.72596 0.5H9.88942ZM15.125 8.60526H3.49038C2.84782 8.60526 2.32692 9.12367 2.32692 9.76316V19.0263C2.32692 19.6658 2.84782 20.1842 3.49038 20.1842H15.125C15.7676 20.1842 16.2885 19.6658 16.2885 19.0263V9.76316C16.2885 9.12367 15.7676 8.60526 15.125 8.60526ZM9.30769 10.9211C10.5928 10.9211 11.6346 11.9579 11.6346 13.2368C11.6346 14.094 11.1667 14.8423 10.4712 15.2428L10.4712 16.7105C10.4712 17.35 9.95025 17.8684 9.30769 17.8684C8.66513 17.8684 8.14423 17.35 8.14423 16.7105L8.14414 15.2428C7.44867 14.8423 6.98077 14.094 6.98077 13.2368C6.98077 11.9579 8.02257 10.9211 9.30769 10.9211ZM9.88942 2.81579H8.72596C7.76212 2.81579 6.98077 3.5934 6.98077 4.55263V6.28947H11.6346V4.55263C11.6346 3.5934 10.8533 2.81579 9.88942 2.81579Z" fill="#707070"/>
</svg>
