<svg width="26" height="23" viewBox="0 0 26 23" fill="none" xmlns="http://www.w3.org/2000/svg">
<g filter="url(#filter0_d_17_494)">
<path d="M15.5312 10.3755L15.2495 9.91281C15.0672 10.0239 14.9671 10.2315 14.9939 10.4433C15.0205 10.655 15.169 10.8314 15.3733 10.8937L15.5312 10.3755ZM10.4687 10.3755L10.6267 10.8937C10.8308 10.8314 10.9794 10.655 11.0061 10.4433C11.0328 10.2315 10.9327 10.0239 10.7503 9.91281L10.4687 10.3755ZM17.3333 6.20835C17.3333 7.77701 16.5001 9.15155 15.2495 9.91281L15.8129 10.8382C17.3729 9.88854 18.4167 8.17059 18.4167 6.20835H17.3333ZM13 1.87502C15.3932 1.87502 17.3333 3.81512 17.3333 6.20835H18.4167C18.4167 3.21682 15.9915 0.791687 13 0.791687V1.87502ZM8.66662 6.20835C8.66662 3.81512 10.6067 1.87502 13 1.87502V0.791687C10.0084 0.791687 7.58329 3.21682 7.58329 6.20835H8.66662ZM10.7503 9.91281C9.49979 9.15155 8.66662 7.77702 8.66662 6.20835H7.58329C7.58329 8.17059 8.62704 9.88854 10.187 10.8382L10.7503 9.91281ZM10.3107 9.85735C6.8909 10.9002 4.31552 13.8788 3.86256 17.5186L4.93759 17.6524C5.33691 14.4436 7.60912 11.8137 10.6267 10.8937L10.3107 9.85735ZM3.86256 17.5186C3.74284 18.4806 4.53976 19.2084 5.41662 19.2084V18.125C5.09687 18.125 4.90953 17.8779 4.93759 17.6524L3.86256 17.5186ZM5.41662 19.2084H20.5833V18.125H5.41662V19.2084ZM20.5833 19.2084C21.4602 19.2084 22.2571 18.4806 22.1374 17.5186L21.0623 17.6524C21.0903 17.8779 20.903 18.125 20.5833 18.125V19.2084ZM22.1374 17.5186C21.6844 13.8788 19.109 10.9002 15.6892 9.85735L15.3733 10.8937C18.3908 11.8137 20.663 14.4436 21.0623 17.6524L22.1374 17.5186Z" fill="#707070"/>
</g>
<defs>
<filter id="filter0_d_17_494" x="-29.4827" y="0.791687" width="84.9654" height="85.0834" filterUnits="userSpaceOnUse" color-interpolation-filters="sRGB">
<feFlood flood-opacity="0" result="BackgroundImageFix"/>
<feColorMatrix in="SourceAlpha" type="matrix" values="0 0 0 0 0 0 0 0 0 0 0 0 0 0 0 0 0 0 127 0" result="hardAlpha"/>
<feOffset dy="33.3333"/>
<feGaussianBlur stdDeviation="16.6667"/>
<feColorMatrix type="matrix" values="0 0 0 0 0 0 0 0 0 0 0 0 0 0 0 0 0 0 0.1 0"/>
<feBlend mode="normal" in2="BackgroundImageFix" result="effect1_dropShadow_17_494"/>
<feBlend mode="normal" in="SourceGraphic" in2="effect1_dropShadow_17_494" result="shape"/>
</filter>
</defs>
</svg>
