<svg width="202" height="29" viewBox="0 0 202 29" fill="none" xmlns="http://www.w3.org/2000/svg">
<path d="M27.2939 28H21.3193L18.9443 21.8213H8.07129L5.82617 28H0L10.5947 0.798828H16.4023L27.2939 28ZM17.1816 17.2383L13.4336 7.14453L9.75977 17.2383H17.1816ZM28.3516 22.3779L33.584 21.5801C33.8066 22.5944 34.2581 23.3675 34.9385 23.8994C35.6188 24.4189 36.5713 24.6787 37.7959 24.6787C39.1442 24.6787 40.1585 24.4313 40.8389 23.9365C41.2965 23.5902 41.5254 23.1263 41.5254 22.5449C41.5254 22.1491 41.4017 21.8213 41.1543 21.5615C40.8945 21.3141 40.3132 21.0853 39.4102 20.875C35.2044 19.9473 32.5387 19.0999 31.4131 18.333C29.8545 17.2692 29.0752 15.791 29.0752 13.8984C29.0752 12.1914 29.7493 10.7565 31.0977 9.59375C32.446 8.43099 34.5365 7.84961 37.3691 7.84961C40.0658 7.84961 42.0697 8.28874 43.3809 9.16699C44.6921 10.0452 45.5951 11.3441 46.0898 13.0635L41.1729 13.9727C40.9626 13.2057 40.5605 12.6182 39.9668 12.21C39.3854 11.8018 38.5505 11.5977 37.4619 11.5977C36.0889 11.5977 35.1055 11.7894 34.5117 12.1729C34.1159 12.445 33.918 12.7975 33.918 13.2305C33.918 13.6016 34.0911 13.917 34.4375 14.1768C34.9076 14.5231 36.528 15.0117 39.2988 15.6426C42.082 16.2734 44.0241 17.0465 45.125 17.9619C46.2135 18.8896 46.7578 20.1823 46.7578 21.8398C46.7578 23.6458 46.0033 25.1982 44.4941 26.4971C42.985 27.7959 40.7523 28.4453 37.7959 28.4453C35.1117 28.4453 32.984 27.901 31.4131 26.8125C29.8545 25.724 28.834 24.2458 28.3516 22.3779ZM60.377 8.29492V12.4512H56.8145V20.3926C56.8145 22.0007 56.8454 22.9408 56.9072 23.2129C56.9814 23.4727 57.1361 23.6891 57.3711 23.8623C57.6185 24.0355 57.9154 24.1221 58.2617 24.1221C58.7441 24.1221 59.443 23.9551 60.3584 23.6211L60.8037 27.666C59.5915 28.1855 58.2184 28.4453 56.6846 28.4453C55.7445 28.4453 54.8971 28.2907 54.1426 27.9814C53.388 27.6598 52.8314 27.2516 52.4727 26.7568C52.1263 26.2497 51.8851 25.5693 51.749 24.7158C51.6377 24.1097 51.582 22.8851 51.582 21.042V12.4512H49.1885V8.29492H51.582V4.37988L56.8145 1.33691V8.29492H60.377ZM74.627 28V0.798828H86.1865C89.0934 0.798828 91.2025 1.04622 92.5137 1.54102C93.8372 2.02344 94.8949 2.88932 95.6865 4.13867C96.4782 5.38802 96.874 6.81673 96.874 8.4248C96.874 10.4658 96.2741 12.1543 95.0742 13.4902C93.8743 14.8138 92.0807 15.6488 89.6934 15.9951C90.8809 16.6878 91.8581 17.4486 92.625 18.2773C93.4043 19.1061 94.4495 20.5781 95.7607 22.6934L99.082 28H92.5137L88.543 22.0811C87.1328 19.9658 86.168 18.6361 85.6484 18.0918C85.1289 17.5352 84.5785 17.1579 83.9971 16.96C83.4157 16.7497 82.4941 16.6445 81.2324 16.6445H80.1191V28H74.627ZM80.1191 12.3027H84.1826C86.8174 12.3027 88.4626 12.1914 89.1182 11.9688C89.7738 11.7461 90.2871 11.3626 90.6582 10.8184C91.0293 10.2741 91.2148 9.59375 91.2148 8.77734C91.2148 7.86198 90.9674 7.12598 90.4727 6.56934C89.9902 6.00033 89.3037 5.6416 88.4131 5.49316C87.9678 5.43132 86.6318 5.40039 84.4053 5.40039H80.1191V12.3027ZM113.443 21.7285L118.639 22.6006C117.971 24.5055 116.913 25.959 115.466 26.9609C114.031 27.9505 112.231 28.4453 110.066 28.4453C106.64 28.4453 104.104 27.3258 102.459 25.0869C101.16 23.2933 100.511 21.0296 100.511 18.2959C100.511 15.0303 101.364 12.4759 103.071 10.6328C104.778 8.77734 106.937 7.84961 109.547 7.84961C112.479 7.84961 114.792 8.82064 116.486 10.7627C118.181 12.6924 118.991 15.6549 118.917 19.6504H105.854C105.892 21.1966 106.312 22.4027 107.116 23.2686C107.92 24.1221 108.922 24.5488 110.122 24.5488C110.938 24.5488 111.625 24.3262 112.182 23.8809C112.738 23.4355 113.159 22.7181 113.443 21.7285ZM113.74 16.459C113.703 14.9499 113.313 13.8057 112.571 13.0264C111.829 12.2347 110.926 11.8389 109.862 11.8389C108.724 11.8389 107.784 12.2533 107.042 13.082C106.3 13.9108 105.935 15.0365 105.947 16.459H113.74ZM127.081 14.3066L122.35 13.4531C122.882 11.5482 123.797 10.138 125.096 9.22266C126.395 8.30729 128.324 7.84961 130.885 7.84961C133.21 7.84961 134.942 8.12793 136.08 8.68457C137.218 9.22884 138.016 9.92773 138.474 10.7812C138.944 11.6224 139.179 13.1748 139.179 15.4385L139.123 21.5244C139.123 23.2562 139.203 24.5365 139.364 25.3652C139.537 26.1816 139.853 27.0599 140.311 28H135.152C135.016 27.6536 134.849 27.1403 134.651 26.46C134.565 26.1507 134.503 25.9466 134.466 25.8477C133.575 26.7135 132.623 27.363 131.608 27.7959C130.594 28.2288 129.512 28.4453 128.361 28.4453C126.333 28.4453 124.731 27.8949 123.556 26.7939C122.393 25.693 121.812 24.3014 121.812 22.6191C121.812 21.5059 122.077 20.5163 122.609 19.6504C123.141 18.7721 123.883 18.1042 124.836 17.6465C125.801 17.1764 127.186 16.7682 128.992 16.4219C131.429 15.9642 133.118 15.5374 134.058 15.1416V14.6221C134.058 13.6201 133.81 12.9089 133.315 12.4883C132.821 12.0553 131.887 11.8389 130.514 11.8389C129.586 11.8389 128.862 12.0244 128.343 12.3955C127.823 12.7542 127.403 13.3913 127.081 14.3066ZM134.058 18.5371C133.39 18.7598 132.332 19.0257 130.885 19.335C129.438 19.6442 128.491 19.9473 128.046 20.2441C127.366 20.7266 127.025 21.3389 127.025 22.0811C127.025 22.8109 127.298 23.4417 127.842 23.9736C128.386 24.5055 129.079 24.7715 129.92 24.7715C130.86 24.7715 131.757 24.4622 132.61 23.8438C133.241 23.3737 133.656 22.7985 133.854 22.1182C133.99 21.6729 134.058 20.8255 134.058 19.5762V18.5371ZM162.409 28H157.566V25.1055C156.762 26.2311 155.81 27.0723 154.709 27.6289C153.62 28.1732 152.52 28.4453 151.406 28.4453C149.143 28.4453 147.201 27.5361 145.58 25.7178C143.972 23.887 143.168 21.3389 143.168 18.0732C143.168 14.7334 143.953 12.1976 145.524 10.4658C147.095 8.72168 149.081 7.84961 151.48 7.84961C153.682 7.84961 155.587 8.76497 157.195 10.5957V0.798828H162.409V28ZM148.493 17.7207C148.493 19.8236 148.784 21.3451 149.365 22.2852C150.206 23.6458 151.382 24.3262 152.891 24.3262C154.09 24.3262 155.111 23.819 155.952 22.8047C156.793 21.778 157.214 20.2503 157.214 18.2217C157.214 15.958 156.806 14.3314 155.989 13.3418C155.173 12.3398 154.128 11.8389 152.854 11.8389C151.617 11.8389 150.577 12.3337 149.736 13.3232C148.908 14.3005 148.493 15.7663 148.493 17.7207ZM178.979 21.7285L184.174 22.6006C183.506 24.5055 182.448 25.959 181.001 26.9609C179.566 27.9505 177.766 28.4453 175.602 28.4453C172.175 28.4453 169.639 27.3258 167.994 25.0869C166.695 23.2933 166.046 21.0296 166.046 18.2959C166.046 15.0303 166.899 12.4759 168.606 10.6328C170.313 8.77734 172.472 7.84961 175.082 7.84961C178.014 7.84961 180.327 8.82064 182.021 10.7627C183.716 12.6924 184.526 15.6549 184.452 19.6504H171.39C171.427 21.1966 171.847 22.4027 172.651 23.2686C173.455 24.1221 174.457 24.5488 175.657 24.5488C176.474 24.5488 177.16 24.3262 177.717 23.8809C178.273 23.4355 178.694 22.7181 178.979 21.7285ZM179.275 16.459C179.238 14.9499 178.849 13.8057 178.106 13.0264C177.364 12.2347 176.461 11.8389 175.397 11.8389C174.259 11.8389 173.319 12.2533 172.577 13.082C171.835 13.9108 171.47 15.0365 171.482 16.459H179.275ZM193.711 28H188.497V8.29492H193.34V11.0967C194.169 9.77311 194.911 8.90104 195.566 8.48047C196.234 8.0599 196.989 7.84961 197.83 7.84961C199.018 7.84961 200.162 8.17741 201.263 8.83301L199.648 13.3789C198.77 12.8099 197.954 12.5254 197.199 12.5254C196.469 12.5254 195.851 12.7295 195.344 13.1377C194.837 13.5335 194.435 14.2572 194.138 15.3086C193.853 16.36 193.711 18.5618 193.711 21.9141V28Z" fill="white"/>
</svg>
